<?xml version="1.0" standalone="no"?>
<!DOCTYPE svg PUBLIC "-//W3C//DTD SVG 20010904//EN"
 "http://www.w3.org/TR/2001/REC-SVG-20010904/DTD/svg10.dtd">
<svg version="1.0" xmlns="http://www.w3.org/2000/svg"
 width="492.000000pt" height="459.000000pt" viewBox="0 0 492.000000 459.000000"
 preserveAspectRatio="xMidYMid meet">

<g transform="translate(0.000000,459.000000) scale(0.100000,-0.100000)"
fill="#000000" stroke="none">
<path d="M1984 3263 l-142 -36 -24 -111 -24 -111 -75 -3 -74 -3 -24 -102 c-13
-56 -26 -108 -28 -114 -4 -10 14 -13 71 -13 58 0 76 -3 76 -14 0 -8 -23 -119
-51 -247 -29 -129 -53 -250 -54 -270 -1 -20 -5 -41 -9 -48 -4 -6 -4 -17 1 -23
4 -7 6 -25 5 -39 -2 -15 4 -34 13 -43 9 -9 13 -16 9 -16 -4 0 1 -7 12 -16 10
-8 12 -12 4 -8 -11 5 -12 4 -4 -5 6 -7 21 -13 33 -14 14 -1 21 -8 21 -22 -1
-18 -1 -19 -11 -2 -5 9 -14 17 -19 17 -6 0 -2 -9 7 -19 9 -11 20 -18 25 -15 4
3 8 0 8 -5 0 -6 7 -11 16 -11 8 0 12 4 9 10 -3 6 1 7 9 4 9 -3 16 -13 16 -20
0 -20 27 -29 44 -15 11 9 16 9 22 0 4 -8 3 -9 -4 -5 -7 4 -12 2 -12 -3 0 -6
16 -12 35 -12 19 -1 50 -2 68 -3 35 -1 159 10 192 18 39 9 137 36 168 45 18 6
64 20 102 31 39 12 77 24 85 27 21 9 22 9 55 17 17 4 38 11 47 17 10 5 24 9
31 9 8 0 40 9 73 20 32 11 75 23 94 26 19 2 37 9 38 14 2 6 7 8 12 5 8 -5 79
15 470 132 327 97 446 136 432 141 -7 2 -12 8 -12 13 0 5 10 4 23 -2 20 -11
21 -11 8 4 -18 23 -60 19 -512 -47 -488 -72 -460 -67 -452 -80 4 -8 3 -8 -6 0
-8 7 -26 8 -54 3 -23 -5 -67 -11 -97 -14 -30 -3 -111 -15 -180 -25 -238 -36
-361 -34 -432 8 -25 15 -30 15 -39 2 -8 -12 -9 -10 -4 7 3 12 1 24 -5 28 -16
10 -13 39 32 248 l43 197 117 0 116 0 26 110 c14 61 26 113 26 115 0 3 -52 5
-115 5 -85 0 -115 3 -115 13 0 6 13 74 29 150 25 121 27 137 12 136 -9 -1 -80
-17 -157 -36z m-234 -1257 c0 -3 -4 -8 -10 -11 -5 -3 -10 -1 -10 4 0 6 5 11
10 11 6 0 10 -2 10 -4z"/>
<path d="M2060 1610 l0 -99 -25 24 c-42 42 -105 31 -134 -24 -16 -30 -26 -163
-16 -226 13 -90 88 -132 149 -84 l26 20 0 -20 c0 -18 6 -21 45 -21 l45 0 0
265 0 265 -45 0 -45 0 0 -100z m-5 -240 l0 -105 -30 -3 c-43 -5 -55 19 -55
106 0 92 11 114 53 110 l32 -3 0 -105z"/>
<path d="M1320 1615 c0 -48 -2 -55 -20 -55 -17 0 -20 -7 -20 -40 0 -33 3 -40
20 -40 19 0 20 -7 20 -115 0 -63 5 -125 11 -138 14 -30 48 -47 94 -47 35 0 35
0 35 44 0 39 -3 45 -22 48 -22 3 -23 8 -26 105 -3 99 -2 102 20 105 19 2 24
10 26 41 3 34 1 37 -22 37 -25 0 -26 3 -26 55 l0 55 -45 0 -45 0 0 -55z"/>
<path d="M2750 1615 c0 -42 -3 -55 -15 -55 -11 0 -15 -11 -15 -40 0 -28 4 -40
14 -40 11 0 15 -25 18 -125 4 -146 13 -164 92 -172 l46 -6 0 46 c0 40 -3 46
-22 49 -22 3 -23 8 -26 106 l-3 102 26 0 c23 0 25 4 25 40 0 36 -2 40 -25 40
-24 0 -25 3 -25 55 l0 55 -45 0 -45 0 0 -55z"/>
<path d="M3330 1615 c0 -48 -2 -55 -20 -55 -16 0 -20 -7 -20 -36 0 -27 5 -37
20 -41 19 -5 20 -14 20 -123 0 -65 3 -126 6 -135 9 -22 57 -45 94 -45 29 0 30
2 30 45 0 37 -3 45 -19 45 -26 0 -31 18 -31 121 0 88 0 89 25 89 23 0 25 4 25
40 0 36 -2 40 -25 40 -24 0 -25 3 -25 55 l0 55 -40 0 -40 0 0 -55z"/>
<path d="M1589 1545 c-47 -25 -61 -74 -57 -191 3 -101 4 -104 35 -135 60 -61
182 -49 218 21 10 20 15 59 15 130 0 114 -12 150 -60 175 -36 19 -116 19 -151
0z m109 -77 c7 -7 12 -44 12 -98 0 -91 -8 -110 -45 -110 -37 0 -45 19 -45 110
0 91 8 110 45 110 12 0 26 -5 33 -12z"/>
<path d="M2295 1538 c-39 -31 -55 -77 -55 -160 0 -137 31 -187 120 -196 58 -5
102 10 130 46 17 21 20 40 20 139 0 63 -4 123 -10 133 -31 58 -151 80 -205 38z
m119 -74 c22 -22 22 -151 0 -182 -17 -24 -53 -29 -72 -10 -16 16 -16 180 0
196 17 17 54 15 72 -4z"/>
<path d="M2958 1543 c6 -10 29 -49 51 -88 23 -38 41 -76 41 -84 0 -8 -24 -54
-54 -103 l-55 -88 48 0 47 0 28 56 c30 62 33 62 69 -6 22 -43 26 -45 72 -48
l48 -3 -15 23 c-8 13 -34 56 -57 96 l-42 73 50 88 c28 49 51 91 51 95 0 3 -20
6 -44 6 -43 0 -44 0 -67 -55 -13 -30 -27 -55 -30 -55 -3 0 -16 24 -30 53 -24
51 -25 52 -72 55 -44 3 -47 2 -39 -15z"/>
<path d="M2570 1225 l0 -45 45 0 45 0 0 45 0 45 -45 0 -45 0 0 -45z"/>
</g>
</svg>
